<svg width="250" height="250" viewBox="0 0 250 250" fill="none" xmlns="http://www.w3.org/2000/svg">
<path d="M102.778 72.6111C96.6493 72.6111 91.6667 77.5938 91.6667 83.7222V122.611C91.6667 128.74 96.6493 133.722 102.778 133.722H163.889C170.017 133.722 175 128.74 175 122.611V83.7222C175 77.5938 170.017 72.6111 163.889 72.6111H102.778ZM143.75 91.1354L160.417 116.135C161.267 117.42 161.354 119.052 160.625 120.406C159.896 121.76 158.49 122.611 156.944 122.611H131.944H123.611H109.722C108.125 122.611 106.667 121.691 105.972 120.25C105.278 118.809 105.469 117.09 106.476 115.84L117.587 101.951C118.385 100.962 119.566 100.389 120.833 100.389C122.101 100.389 123.299 100.962 124.08 101.951L127.083 105.701L136.806 91.1181C137.587 89.9722 138.889 89.2778 140.278 89.2778C141.667 89.2778 142.969 89.9722 143.75 91.1354ZM108.333 89.2778C108.333 87.8044 108.919 86.3913 109.961 85.3494C111.002 84.3075 112.415 83.7222 113.889 83.7222C115.362 83.7222 116.775 84.3075 117.817 85.3494C118.859 86.3913 119.444 87.8044 119.444 89.2778C119.444 90.7512 118.859 92.1643 117.817 93.2062C116.775 94.248 115.362 94.8333 113.889 94.8333C112.415 94.8333 111.002 94.248 109.961 93.2062C108.919 92.1643 108.333 90.7512 108.333 89.2778ZM83.3333 87.8889C83.3333 85.5799 81.4757 83.7222 79.1667 83.7222C76.8576 83.7222 75 85.5799 75 87.8889V126.778C75 139.816 85.5729 150.389 98.6111 150.389H154.167C156.476 150.389 158.333 148.531 158.333 146.222C158.333 143.913 156.476 142.056 154.167 142.056H98.6111C90.1736 142.056 83.3333 135.215 83.3333 126.778V87.8889Z" fill="#AAAAAA"/>
<path d="M80.807 171.217V179.944H79.7502V171.217H80.807ZM82.7896 179.944V173.399H83.7612V174.422H83.8464C83.9828 174.072 84.2029 173.801 84.5069 173.608C84.8109 173.412 85.176 173.314 85.6021 173.314C86.0339 173.314 86.3933 173.412 86.6802 173.608C86.97 173.801 87.1958 174.072 87.3578 174.422H87.426C87.5936 174.084 87.845 173.815 88.1802 173.616C88.5154 173.415 88.9174 173.314 89.3862 173.314C89.9714 173.314 90.4501 173.497 90.8223 173.863C91.1944 174.227 91.3805 174.794 91.3805 175.564V179.944H90.3748V175.564C90.3748 175.081 90.2427 174.736 89.9785 174.528C89.7143 174.321 89.4032 174.217 89.0453 174.217C88.5851 174.217 88.2285 174.356 87.9757 174.635C87.7228 174.91 87.5964 175.26 87.5964 175.683V179.944H86.5737V175.462C86.5737 175.089 86.4529 174.79 86.2115 174.562C85.97 174.332 85.6589 174.217 85.2782 174.217C85.0169 174.217 84.7725 174.287 84.5453 174.426C84.3208 174.565 84.139 174.758 83.9998 175.006C83.8635 175.25 83.7953 175.533 83.7953 175.854V179.944H82.7896ZM95.1454 180.098C94.7306 180.098 94.3542 180.02 94.0162 179.863C93.6781 179.704 93.4096 179.476 93.2108 179.177C93.0119 178.876 92.9125 178.513 92.9125 178.087C92.9125 177.712 92.9863 177.408 93.1341 177.175C93.2818 176.939 93.4792 176.754 93.7264 176.621C93.9735 176.487 94.2463 176.388 94.5446 176.322C94.8457 176.254 95.1483 176.2 95.4522 176.16C95.85 176.109 96.1724 176.071 96.4196 176.045C96.6696 176.017 96.8514 175.97 96.965 175.905C97.0815 175.839 97.1397 175.726 97.1397 175.564V175.53C97.1397 175.109 97.0247 174.783 96.7946 174.55C96.5673 174.317 96.2221 174.2 95.7591 174.2C95.2789 174.2 94.9025 174.305 94.6298 174.515C94.3571 174.726 94.1653 174.95 94.0545 175.189L93.1 174.848C93.2704 174.45 93.4977 174.14 93.7818 173.919C94.0687 173.694 94.3812 173.538 94.7193 173.45C95.0602 173.359 95.3954 173.314 95.725 173.314C95.9352 173.314 96.1767 173.339 96.4494 173.39C96.725 173.439 96.9906 173.54 97.2463 173.693C97.5048 173.846 97.7193 174.078 97.8897 174.388C98.0602 174.697 98.1454 175.112 98.1454 175.632V179.944H97.1397V179.058H97.0886C97.0204 179.2 96.9068 179.352 96.7477 179.514C96.5886 179.676 96.377 179.814 96.1127 179.927C95.8485 180.041 95.5261 180.098 95.1454 180.098ZM95.2988 179.194C95.6966 179.194 96.0318 179.116 96.3045 178.96C96.5801 178.804 96.7875 178.602 96.9267 178.355C97.0687 178.108 97.1397 177.848 97.1397 177.575V176.655C97.0971 176.706 97.0034 176.753 96.8585 176.795C96.7164 176.835 96.5517 176.871 96.3642 176.902C96.1795 176.93 95.9991 176.956 95.823 176.979C95.6497 176.998 95.5091 177.015 95.4011 177.03C95.1397 177.064 94.8954 177.119 94.6681 177.196C94.4437 177.27 94.2619 177.382 94.1227 177.533C93.9863 177.68 93.9181 177.882 93.9181 178.138C93.9181 178.487 94.0474 178.751 94.3059 178.93C94.5673 179.106 94.8983 179.194 95.2988 179.194ZM102.623 182.535C102.137 182.535 101.72 182.473 101.37 182.348C101.021 182.226 100.73 182.064 100.497 181.862C100.267 181.663 100.083 181.45 99.9469 181.223L100.748 180.66C100.839 180.78 100.954 180.916 101.093 181.069C101.232 181.226 101.423 181.361 101.664 181.474C101.909 181.591 102.228 181.649 102.623 181.649C103.151 181.649 103.588 181.521 103.931 181.265C104.275 181.01 104.447 180.609 104.447 180.064V178.734H104.362C104.288 178.854 104.183 179.001 104.046 179.177C103.913 179.351 103.72 179.506 103.467 179.642C103.217 179.775 102.879 179.842 102.453 179.842C101.924 179.842 101.45 179.717 101.029 179.467C100.612 179.217 100.281 178.854 100.036 178.376C99.7949 177.899 99.6742 177.319 99.6742 176.638C99.6742 175.967 99.7921 175.383 100.028 174.886C100.264 174.386 100.592 174 101.012 173.727C101.433 173.452 101.919 173.314 102.47 173.314C102.896 173.314 103.234 173.385 103.484 173.527C103.737 173.666 103.93 173.825 104.063 174.004C104.2 174.18 104.305 174.325 104.379 174.439H104.481V173.399H105.453V180.132C105.453 180.694 105.325 181.152 105.069 181.504C104.816 181.859 104.475 182.119 104.046 182.284C103.62 182.452 103.146 182.535 102.623 182.535ZM102.589 178.939C102.992 178.939 103.333 178.846 103.612 178.662C103.89 178.477 104.102 178.212 104.247 177.865C104.392 177.518 104.464 177.104 104.464 176.621C104.464 176.149 104.393 175.733 104.251 175.372C104.109 175.011 103.899 174.729 103.62 174.524C103.342 174.319 102.998 174.217 102.589 174.217C102.163 174.217 101.808 174.325 101.524 174.541C101.242 174.757 101.031 175.047 100.889 175.41C100.749 175.774 100.68 176.177 100.68 176.621C100.68 177.075 100.751 177.477 100.893 177.827C101.038 178.173 101.251 178.446 101.532 178.645C101.816 178.841 102.169 178.939 102.589 178.939ZM110.038 180.081C109.407 180.081 108.863 179.942 108.406 179.663C107.951 179.382 107.6 178.99 107.353 178.487C107.109 177.981 106.987 177.393 106.987 176.723C106.987 176.052 107.109 175.462 107.353 174.95C107.6 174.436 107.944 174.035 108.384 173.748C108.828 173.459 109.345 173.314 109.936 173.314C110.276 173.314 110.613 173.371 110.945 173.484C111.278 173.598 111.58 173.783 111.853 174.038C112.126 174.291 112.343 174.626 112.505 175.044C112.667 175.462 112.748 175.976 112.748 176.587V177.013H107.703V176.143H111.725C111.725 175.774 111.651 175.444 111.504 175.155C111.359 174.865 111.151 174.636 110.882 174.469C110.615 174.301 110.299 174.217 109.936 174.217C109.535 174.217 109.188 174.317 108.896 174.515C108.606 174.712 108.383 174.967 108.227 175.283C108.07 175.598 107.992 175.936 107.992 176.297V176.876C107.992 177.371 108.078 177.79 108.248 178.133C108.421 178.474 108.661 178.734 108.968 178.913C109.275 179.089 109.632 179.177 110.038 179.177C110.302 179.177 110.541 179.14 110.754 179.067C110.97 178.99 111.156 178.876 111.312 178.726C111.468 178.572 111.589 178.382 111.674 178.155L112.646 178.427C112.544 178.757 112.372 179.047 112.13 179.297C111.889 179.544 111.59 179.737 111.235 179.876C110.88 180.013 110.481 180.081 110.038 180.081ZM118.659 176.007V179.944H117.653V173.399H118.624V174.422H118.71C118.863 174.089 119.096 173.822 119.409 173.621C119.721 173.416 120.124 173.314 120.619 173.314C121.062 173.314 121.45 173.405 121.782 173.587C122.115 173.765 122.373 174.038 122.558 174.405C122.742 174.768 122.835 175.229 122.835 175.785V179.944H121.829V175.854C121.829 175.339 121.695 174.939 121.428 174.652C121.161 174.362 120.795 174.217 120.329 174.217C120.008 174.217 119.721 174.287 119.468 174.426C119.218 174.565 119.021 174.768 118.876 175.035C118.731 175.302 118.659 175.626 118.659 176.007ZM127.331 180.081C126.741 180.081 126.222 179.94 125.776 179.659C125.333 179.378 124.986 178.984 124.736 178.479C124.489 177.973 124.366 177.382 124.366 176.706C124.366 176.024 124.489 175.429 124.736 174.92C124.986 174.412 125.333 174.017 125.776 173.736C126.222 173.454 126.741 173.314 127.331 173.314C127.922 173.314 128.439 173.454 128.883 173.736C129.329 174.017 129.675 174.412 129.922 174.92C130.172 175.429 130.297 176.024 130.297 176.706C130.297 177.382 130.172 177.973 129.922 178.479C129.675 178.984 129.329 179.378 128.883 179.659C128.439 179.94 127.922 180.081 127.331 180.081ZM127.331 179.177C127.78 179.177 128.15 179.062 128.439 178.832C128.729 178.602 128.944 178.3 129.083 177.925C129.222 177.55 129.292 177.143 129.292 176.706C129.292 176.268 129.222 175.861 129.083 175.483C128.944 175.105 128.729 174.8 128.439 174.567C128.15 174.334 127.78 174.217 127.331 174.217C126.883 174.217 126.513 174.334 126.224 174.567C125.934 174.8 125.719 175.105 125.58 175.483C125.441 175.861 125.371 176.268 125.371 176.706C125.371 177.143 125.441 177.55 125.58 177.925C125.719 178.3 125.934 178.602 126.224 178.832C126.513 179.062 126.883 179.177 127.331 179.177ZM134.679 173.399V174.251H131.287V173.399H134.679ZM132.276 171.831H133.281V178.069C133.281 178.354 133.323 178.567 133.405 178.709C133.49 178.848 133.598 178.942 133.729 178.99C133.862 179.035 134.003 179.058 134.151 179.058C134.262 179.058 134.352 179.052 134.423 179.041C134.494 179.027 134.551 179.015 134.594 179.007L134.798 179.91C134.73 179.936 134.635 179.962 134.513 179.987C134.391 180.015 134.236 180.03 134.048 180.03C133.764 180.03 133.486 179.969 133.213 179.846C132.943 179.724 132.719 179.538 132.54 179.288C132.364 179.038 132.276 178.723 132.276 178.342V171.831ZM142.482 173.399V174.251H138.953V173.399H142.482ZM140.01 179.944V172.496C140.01 172.121 140.098 171.808 140.274 171.558C140.45 171.308 140.679 171.121 140.96 170.996C141.242 170.871 141.539 170.808 141.851 170.808C142.098 170.808 142.3 170.828 142.456 170.868C142.612 170.908 142.729 170.944 142.806 170.979L142.516 171.848C142.465 171.831 142.394 171.81 142.303 171.784C142.215 171.758 142.098 171.746 141.953 171.746C141.621 171.746 141.381 171.829 141.233 171.997C141.088 172.165 141.016 172.41 141.016 172.734V179.944H140.01ZM146.281 180.081C145.69 180.081 145.171 179.94 144.725 179.659C144.282 179.378 143.936 178.984 143.686 178.479C143.438 177.973 143.315 177.382 143.315 176.706C143.315 176.024 143.438 175.429 143.686 174.92C143.936 174.412 144.282 174.017 144.725 173.736C145.171 173.454 145.69 173.314 146.281 173.314C146.872 173.314 147.389 173.454 147.832 173.736C148.278 174.017 148.624 174.412 148.872 174.92C149.122 175.429 149.247 176.024 149.247 176.706C149.247 177.382 149.122 177.973 148.872 178.479C148.624 178.984 148.278 179.378 147.832 179.659C147.389 179.94 146.872 180.081 146.281 180.081ZM146.281 179.177C146.73 179.177 147.099 179.062 147.389 178.832C147.678 178.602 147.893 178.3 148.032 177.925C148.171 177.55 148.241 177.143 148.241 176.706C148.241 176.268 148.171 175.861 148.032 175.483C147.893 175.105 147.678 174.8 147.389 174.567C147.099 174.334 146.73 174.217 146.281 174.217C145.832 174.217 145.463 174.334 145.173 174.567C144.883 174.8 144.669 175.105 144.529 175.483C144.39 175.861 144.32 176.268 144.32 176.706C144.32 177.143 144.39 177.55 144.529 177.925C144.669 178.3 144.883 178.602 145.173 178.832C145.463 179.062 145.832 179.177 146.281 179.177ZM154.907 177.268V173.399H155.912V179.944H154.907V178.837H154.839C154.685 179.169 154.447 179.452 154.123 179.685C153.799 179.915 153.39 180.03 152.895 180.03C152.486 180.03 152.123 179.94 151.805 179.761C151.486 179.579 151.236 179.307 151.055 178.943C150.873 178.577 150.782 178.115 150.782 177.558V173.399H151.787V177.49C151.787 177.967 151.921 178.348 152.188 178.632C152.458 178.916 152.802 179.058 153.219 179.058C153.469 179.058 153.724 178.994 153.982 178.866C154.243 178.738 154.462 178.542 154.638 178.278C154.817 178.014 154.907 177.677 154.907 177.268ZM158.76 176.007V179.944H157.754V173.399H158.726V174.422H158.811C158.965 174.089 159.198 173.822 159.51 173.621C159.823 173.416 160.226 173.314 160.72 173.314C161.164 173.314 161.551 173.405 161.884 173.587C162.216 173.765 162.475 174.038 162.659 174.405C162.844 174.768 162.936 175.229 162.936 175.785V179.944H161.931V175.854C161.931 175.339 161.797 174.939 161.53 174.652C161.263 174.362 160.896 174.217 160.431 174.217C160.11 174.217 159.823 174.287 159.57 174.426C159.32 174.565 159.122 174.768 158.977 175.035C158.833 175.302 158.76 175.626 158.76 176.007ZM167.246 180.081C166.7 180.081 166.219 179.943 165.801 179.667C165.383 179.389 165.057 178.997 164.821 178.491C164.585 177.983 164.467 177.382 164.467 176.689C164.467 176.001 164.585 175.405 164.821 174.899C165.057 174.393 165.385 174.003 165.805 173.727C166.226 173.452 166.711 173.314 167.263 173.314C167.689 173.314 168.025 173.385 168.273 173.527C168.523 173.666 168.713 173.825 168.844 174.004C168.977 174.18 169.081 174.325 169.155 174.439H169.24V171.217H170.246V179.944H169.274V178.939H169.155C169.081 179.058 168.976 179.209 168.839 179.39C168.703 179.569 168.508 179.73 168.256 179.872C168.003 180.011 167.666 180.081 167.246 180.081ZM167.382 179.177C167.785 179.177 168.126 179.072 168.405 178.862C168.683 178.649 168.895 178.355 169.04 177.98C169.184 177.602 169.257 177.166 169.257 176.672C169.257 176.183 169.186 175.756 169.044 175.389C168.902 175.02 168.692 174.733 168.413 174.528C168.135 174.321 167.791 174.217 167.382 174.217C166.956 174.217 166.601 174.327 166.317 174.545C166.035 174.761 165.824 175.055 165.682 175.427C165.542 175.797 165.473 176.212 165.473 176.672C165.473 177.138 165.544 177.561 165.686 177.942C165.831 178.319 166.044 178.621 166.325 178.845C166.609 179.067 166.961 179.177 167.382 179.177Z" fill="#AAAAAA"/>
</svg>
