<svg width="250" height="250" viewBox="0 0 250 250" fill="none" xmlns="http://www.w3.org/2000/svg">
<rect width="250" height="250" fill="white"/>
<path d="M102.778 72.6111C96.6493 72.6111 91.6667 77.5938 91.6667 83.7222V122.611C91.6667 128.74 96.6493 133.722 102.778 133.722H163.889C170.017 133.722 175 128.74 175 122.611V83.7222C175 77.5938 170.017 72.6111 163.889 72.6111H102.778ZM143.75 91.1354L160.417 116.135C161.267 117.42 161.354 119.052 160.625 120.406C159.896 121.76 158.49 122.611 156.944 122.611H131.944H123.611H109.722C108.125 122.611 106.667 121.691 105.972 120.25C105.278 118.809 105.469 117.09 106.476 115.84L117.587 101.951C118.385 100.962 119.566 100.389 120.833 100.389C122.101 100.389 123.299 100.962 124.08 101.951L127.083 105.701L136.806 91.1181C137.587 89.9722 138.889 89.2778 140.278 89.2778C141.667 89.2778 142.969 89.9722 143.75 91.1354ZM108.333 89.2778C108.333 87.8044 108.919 86.3913 109.961 85.3494C111.002 84.3075 112.415 83.7222 113.889 83.7222C115.362 83.7222 116.775 84.3075 117.817 85.3494C118.859 86.3913 119.444 87.8044 119.444 89.2778C119.444 90.7512 118.859 92.1643 117.817 93.2062C116.775 94.248 115.362 94.8333 113.889 94.8333C112.415 94.8333 111.002 94.248 109.961 93.2062C108.919 92.1643 108.333 90.7512 108.333 89.2778ZM83.3333 87.8889C83.3333 85.5799 81.4757 83.7222 79.1667 83.7222C76.8576 83.7222 75 85.5799 75 87.8889V126.778C75 139.816 85.5729 150.389 98.6111 150.389H154.167C156.476 150.389 158.333 148.531 158.333 146.222C158.333 143.913 156.476 142.056 154.167 142.056H98.6111C90.1736 142.056 83.3333 135.215 83.3333 126.778V87.8889Z" fill="#AAAAAA"/>
<path d="M67.0444 172.155V171.217H73.5898V172.155H70.8455V179.944H69.7887V172.155H67.0444ZM76.0902 176.007V179.944H75.0845V171.217H76.0902V174.422H76.1754C76.3288 174.084 76.5589 173.815 76.8658 173.616C77.1754 173.415 77.5874 173.314 78.1016 173.314C78.5476 173.314 78.9382 173.403 79.2734 173.582C79.6087 173.758 79.8686 174.03 80.0533 174.396C80.2408 174.76 80.3345 175.223 80.3345 175.785V179.944H79.3288V175.854C79.3288 175.334 79.1939 174.932 78.924 174.648C78.657 174.361 78.2862 174.217 77.8118 174.217C77.4822 174.217 77.1868 174.287 76.9254 174.426C76.6669 174.565 76.4624 174.768 76.3118 175.035C76.1641 175.302 76.0902 175.626 76.0902 176.007ZM86.2994 177.268V173.399H87.305V179.944H86.2994V178.837H86.2312C86.0778 179.169 85.8391 179.452 85.5153 179.685C85.1914 179.915 84.7823 180.03 84.288 180.03C83.8789 180.03 83.5153 179.94 83.1971 179.761C82.8789 179.579 82.6289 179.307 82.4471 178.943C82.2653 178.577 82.1744 178.115 82.1744 177.558V173.399H83.18V177.49C83.18 177.967 83.3136 178.348 83.5806 178.632C83.8505 178.916 84.1942 179.058 84.6119 179.058C84.8619 179.058 85.1161 178.994 85.3746 178.866C85.636 178.738 85.8548 178.542 86.0309 178.278C86.2099 178.014 86.2994 177.677 86.2994 177.268ZM89.147 179.944V173.399H90.1186V174.422H90.2038C90.3402 174.072 90.5604 173.801 90.8643 173.608C91.1683 173.412 91.5334 173.314 91.9595 173.314C92.3913 173.314 92.7507 173.412 93.0376 173.608C93.3274 173.801 93.5533 174.072 93.7152 174.422H93.7834C93.951 174.084 94.2024 173.815 94.5376 173.616C94.8729 173.415 95.2749 173.314 95.7436 173.314C96.3288 173.314 96.8075 173.497 97.1797 173.863C97.5518 174.227 97.7379 174.794 97.7379 175.564V179.944H96.7322V175.564C96.7322 175.081 96.6001 174.736 96.3359 174.528C96.0717 174.321 95.7607 174.217 95.4027 174.217C94.9425 174.217 94.5859 174.356 94.3331 174.635C94.0803 174.91 93.9538 175.26 93.9538 175.683V179.944H92.9311V175.462C92.9311 175.089 92.8104 174.79 92.5689 174.562C92.3274 174.332 92.0163 174.217 91.6357 174.217C91.3743 174.217 91.13 174.287 90.9027 174.426C90.6783 174.565 90.4964 174.758 90.3572 175.006C90.2209 175.25 90.1527 175.533 90.1527 175.854V179.944H89.147ZM99.7131 179.944V171.217H100.719V174.439H100.804C100.878 174.325 100.98 174.18 101.111 174.004C101.244 173.825 101.435 173.666 101.682 173.527C101.932 173.385 102.27 173.314 102.696 173.314C103.247 173.314 103.733 173.452 104.153 173.727C104.574 174.003 104.902 174.393 105.138 174.899C105.374 175.405 105.491 176.001 105.491 176.689C105.491 177.382 105.374 177.983 105.138 178.491C104.902 178.997 104.575 179.389 104.158 179.667C103.74 179.943 103.259 180.081 102.713 180.081C102.293 180.081 101.956 180.011 101.703 179.872C101.45 179.73 101.256 179.569 101.119 179.39C100.983 179.209 100.878 179.058 100.804 178.939H100.685V179.944H99.7131ZM100.702 176.672C100.702 177.166 100.774 177.602 100.919 177.98C101.064 178.355 101.276 178.649 101.554 178.862C101.832 179.072 102.173 179.177 102.577 179.177C102.997 179.177 103.348 179.067 103.629 178.845C103.913 178.621 104.126 178.319 104.268 177.942C104.413 177.561 104.486 177.138 104.486 176.672C104.486 176.212 104.415 175.797 104.273 175.427C104.134 175.055 103.922 174.761 103.638 174.545C103.357 174.327 103.003 174.217 102.577 174.217C102.168 174.217 101.824 174.321 101.545 174.528C101.267 174.733 101.057 175.02 100.915 175.389C100.773 175.756 100.702 176.183 100.702 176.672ZM108.036 176.007V179.944H107.03V173.399H108.001V174.422H108.087C108.24 174.089 108.473 173.822 108.786 173.621C109.098 173.416 109.501 173.314 109.996 173.314C110.439 173.314 110.827 173.405 111.159 173.587C111.491 173.765 111.75 174.038 111.935 174.405C112.119 174.768 112.212 175.229 112.212 175.785V179.944H111.206V175.854C111.206 175.339 111.072 174.939 110.805 174.652C110.538 174.362 110.172 174.217 109.706 174.217C109.385 174.217 109.098 174.287 108.845 174.426C108.595 174.565 108.398 174.768 108.253 175.035C108.108 175.302 108.036 175.626 108.036 176.007ZM115.975 180.098C115.561 180.098 115.184 180.02 114.846 179.863C114.508 179.704 114.24 179.476 114.041 179.177C113.842 178.876 113.743 178.513 113.743 178.087C113.743 177.712 113.816 177.408 113.964 177.175C114.112 176.939 114.309 176.754 114.556 176.621C114.804 176.487 115.076 176.388 115.375 176.322C115.676 176.254 115.978 176.2 116.282 176.16C116.68 176.109 117.002 176.071 117.25 176.045C117.5 176.017 117.681 175.97 117.795 175.905C117.912 175.839 117.97 175.726 117.97 175.564V175.53C117.97 175.109 117.855 174.783 117.625 174.55C117.397 174.317 117.052 174.2 116.589 174.2C116.109 174.2 115.733 174.305 115.46 174.515C115.187 174.726 114.995 174.95 114.885 175.189L113.93 174.848C114.1 174.45 114.328 174.14 114.612 173.919C114.899 173.694 115.211 173.538 115.549 173.45C115.89 173.359 116.225 173.314 116.555 173.314C116.765 173.314 117.007 173.339 117.279 173.39C117.555 173.439 117.821 173.54 118.076 173.693C118.335 173.846 118.549 174.078 118.72 174.388C118.89 174.697 118.975 175.112 118.975 175.632V179.944H117.97V179.058H117.919C117.85 179.2 117.737 179.352 117.578 179.514C117.419 179.676 117.207 179.814 116.943 179.927C116.679 180.041 116.356 180.098 115.975 180.098ZM116.129 179.194C116.527 179.194 116.862 179.116 117.135 178.96C117.41 178.804 117.618 178.602 117.757 178.355C117.899 178.108 117.97 177.848 117.97 177.575V176.655C117.927 176.706 117.833 176.753 117.689 176.795C117.547 176.835 117.382 176.871 117.194 176.902C117.01 176.93 116.829 176.956 116.653 176.979C116.48 176.998 116.339 177.015 116.231 177.03C115.97 177.064 115.725 177.119 115.498 177.196C115.274 177.27 115.092 177.382 114.953 177.533C114.816 177.68 114.748 177.882 114.748 178.138C114.748 178.487 114.877 178.751 115.136 178.93C115.397 179.106 115.728 179.194 116.129 179.194ZM120.811 179.944V173.399H121.817V179.944H120.811ZM121.322 172.308C121.126 172.308 120.957 172.241 120.815 172.108C120.676 171.974 120.607 171.814 120.607 171.626C120.607 171.439 120.676 171.278 120.815 171.145C120.957 171.011 121.126 170.944 121.322 170.944C121.518 170.944 121.686 171.011 121.825 171.145C121.967 171.278 122.038 171.439 122.038 171.626C122.038 171.814 121.967 171.974 121.825 172.108C121.686 172.241 121.518 172.308 121.322 172.308ZM124.664 171.217V179.944H123.659V171.217H124.664ZM130.887 176.007V179.944H129.881V173.399H130.853V174.422H130.938C131.092 174.089 131.325 173.822 131.637 173.621C131.95 173.416 132.353 173.314 132.847 173.314C133.29 173.314 133.678 173.405 134.011 173.587C134.343 173.765 134.602 174.038 134.786 174.405C134.971 174.768 135.063 175.229 135.063 175.785V179.944H134.058V175.854C134.058 175.339 133.924 174.939 133.657 174.652C133.39 174.362 133.023 174.217 132.558 174.217C132.237 174.217 131.95 174.287 131.697 174.426C131.447 174.565 131.249 174.768 131.104 175.035C130.96 175.302 130.887 175.626 130.887 176.007ZM139.56 180.081C138.969 180.081 138.451 179.94 138.005 179.659C137.561 179.378 137.215 178.984 136.965 178.479C136.718 177.973 136.594 177.382 136.594 176.706C136.594 176.024 136.718 175.429 136.965 174.92C137.215 174.412 137.561 174.017 138.005 173.736C138.451 173.454 138.969 173.314 139.56 173.314C140.151 173.314 140.668 173.454 141.111 173.736C141.557 174.017 141.904 174.412 142.151 174.92C142.401 175.429 142.526 176.024 142.526 176.706C142.526 177.382 142.401 177.973 142.151 178.479C141.904 178.984 141.557 179.378 141.111 179.659C140.668 179.94 140.151 180.081 139.56 180.081ZM139.56 179.177C140.009 179.177 140.378 179.062 140.668 178.832C140.958 178.602 141.172 178.3 141.311 177.925C141.451 177.55 141.52 177.143 141.52 176.706C141.52 176.268 141.451 175.861 141.311 175.483C141.172 175.105 140.958 174.8 140.668 174.567C140.378 174.334 140.009 174.217 139.56 174.217C139.111 174.217 138.742 174.334 138.452 174.567C138.162 174.8 137.948 175.105 137.809 175.483C137.669 175.861 137.6 176.268 137.6 176.706C137.6 177.143 137.669 177.55 137.809 177.925C137.948 178.3 138.162 178.602 138.452 178.832C138.742 179.062 139.111 179.177 139.56 179.177ZM146.908 173.399V174.251H143.516V173.399H146.908ZM144.504 171.831H145.51V178.069C145.51 178.354 145.551 178.567 145.634 178.709C145.719 178.848 145.827 178.942 145.957 178.99C146.091 179.035 146.232 179.058 146.379 179.058C146.49 179.058 146.581 179.052 146.652 179.041C146.723 179.027 146.78 179.015 146.822 179.007L147.027 179.91C146.959 179.936 146.864 179.962 146.741 179.987C146.619 180.015 146.464 180.03 146.277 180.03C145.993 180.03 145.714 179.969 145.442 179.846C145.172 179.724 144.947 179.538 144.768 179.288C144.592 179.038 144.504 178.723 144.504 178.342V171.831ZM154.71 173.399V174.251H151.182V173.399H154.71ZM152.239 179.944V172.496C152.239 172.121 152.327 171.808 152.503 171.558C152.679 171.308 152.908 171.121 153.189 170.996C153.47 170.871 153.767 170.808 154.08 170.808C154.327 170.808 154.528 170.828 154.685 170.868C154.841 170.908 154.957 170.944 155.034 170.979L154.744 171.848C154.693 171.831 154.622 171.81 154.531 171.784C154.443 171.758 154.327 171.746 154.182 171.746C153.849 171.746 153.609 171.829 153.462 171.997C153.317 172.165 153.244 172.41 153.244 172.734V179.944H152.239ZM158.509 180.081C157.918 180.081 157.4 179.94 156.954 179.659C156.511 179.378 156.164 178.984 155.914 178.479C155.667 177.973 155.543 177.382 155.543 176.706C155.543 176.024 155.667 175.429 155.914 174.92C156.164 174.412 156.511 174.017 156.954 173.736C157.4 173.454 157.918 173.314 158.509 173.314C159.1 173.314 159.617 173.454 160.06 173.736C160.506 174.017 160.853 174.412 161.1 174.92C161.35 175.429 161.475 176.024 161.475 176.706C161.475 177.382 161.35 177.973 161.1 178.479C160.853 178.984 160.506 179.378 160.06 179.659C159.617 179.94 159.1 180.081 158.509 180.081ZM158.509 179.177C158.958 179.177 159.327 179.062 159.617 178.832C159.907 178.602 160.121 178.3 160.261 177.925C160.4 177.55 160.469 177.143 160.469 176.706C160.469 176.268 160.4 175.861 160.261 175.483C160.121 175.105 159.907 174.8 159.617 174.567C159.327 174.334 158.958 174.217 158.509 174.217C158.06 174.217 157.691 174.334 157.401 174.567C157.112 174.8 156.897 175.105 156.758 175.483C156.619 175.861 156.549 176.268 156.549 176.706C156.549 177.143 156.619 177.55 156.758 177.925C156.897 178.3 157.112 178.602 157.401 178.832C157.691 179.062 158.06 179.177 158.509 179.177ZM167.135 177.268V173.399H168.141V179.944H167.135V178.837H167.067C166.914 179.169 166.675 179.452 166.351 179.685C166.027 179.915 165.618 180.03 165.124 180.03C164.715 180.03 164.351 179.94 164.033 179.761C163.715 179.579 163.465 179.307 163.283 178.943C163.101 178.577 163.01 178.115 163.01 177.558V173.399H164.016V177.49C164.016 177.967 164.15 178.348 164.417 178.632C164.686 178.916 165.03 179.058 165.448 179.058C165.698 179.058 165.952 178.994 166.211 178.866C166.472 178.738 166.691 178.542 166.867 178.278C167.046 178.014 167.135 177.677 167.135 177.268ZM170.989 176.007V179.944H169.983V173.399H170.955V174.422H171.04C171.193 174.089 171.426 173.822 171.739 173.621C172.051 173.416 172.455 173.314 172.949 173.314C173.392 173.314 173.78 173.405 174.112 173.587C174.445 173.765 174.703 174.038 174.888 174.405C175.072 174.768 175.165 175.229 175.165 175.785V179.944H174.159V175.854C174.159 175.339 174.026 174.939 173.759 174.652C173.491 174.362 173.125 174.217 172.659 174.217C172.338 174.217 172.051 174.287 171.798 174.426C171.548 174.565 171.351 174.768 171.206 175.035C171.061 175.302 170.989 175.626 170.989 176.007ZM179.474 180.081C178.929 180.081 178.447 179.943 178.029 179.667C177.612 179.389 177.285 178.997 177.049 178.491C176.814 177.983 176.696 177.382 176.696 176.689C176.696 176.001 176.814 175.405 177.049 174.899C177.285 174.393 177.613 174.003 178.034 173.727C178.454 173.452 178.94 173.314 179.491 173.314C179.917 173.314 180.254 173.385 180.501 173.527C180.751 173.666 180.941 173.825 181.072 174.004C181.206 174.18 181.309 174.325 181.383 174.439H181.468V171.217H182.474V179.944H181.502V178.939H181.383C181.309 179.058 181.204 179.209 181.068 179.39C180.931 179.569 180.737 179.73 180.484 179.872C180.231 180.011 179.895 180.081 179.474 180.081ZM179.61 179.177C180.014 179.177 180.355 179.072 180.633 178.862C180.912 178.649 181.123 178.355 181.268 177.98C181.413 177.602 181.485 177.166 181.485 176.672C181.485 176.183 181.414 175.756 181.272 175.389C181.13 175.02 180.92 174.733 180.642 174.528C180.363 174.321 180.02 174.217 179.61 174.217C179.184 174.217 178.829 174.327 178.545 174.545C178.264 174.761 178.052 175.055 177.91 175.427C177.771 175.797 177.701 176.212 177.701 176.672C177.701 177.138 177.772 177.561 177.914 177.942C178.059 178.319 178.272 178.621 178.554 178.845C178.838 179.067 179.19 179.177 179.61 179.177Z" fill="#AAAAAA"/>
</svg>
